<svg version="1" xmlns="http://www.w3.org/2000/svg" width="1232" height="1232" viewBox="0 0 924.000000 924.000000"><path d="M423.5 173.7c-14.2 1.2-40.3 4.7-47.5 6.4-4.7 1.1-16.1 4.4-25.5 7.4-9.3 2.9-24.4 7.4-33.5 9.9-9.1 2.5-19.2 5.6-22.5 7-13.7 5.5-81 45.9-120.5 72.2-38.9 26-62.6 48-107.5 99.9-16.6 19.2-24.9 31.1-32.9 47C23.1 444.6 19.3 456.3 12 490c-2.7 12.4-5.8 25.6-6.9 29.5-2.6 8.5-5.1 28.8-5.1 41 0 17.3 2.9 27.1 12.6 43.4 7.1 12 12.8 18.7 22.9 26.8 12.3 9.8 20.9 14.8 30.3 17.4l7.9 2.1.6 16.2c1.2 31.4 9.1 56.3 22.3 70.5 5.9 6.4 11.8 9.7 19.5 11 5.2.9 264.8 2.7 368.9 2.5 28.3 0 76.5-.6 107-1.2 30.5-.7 89.9-1.9 132-2.7 153.3-3.1 157-3.2 163.5-5 19-5.1 28.3-14.6 33.7-34.2 1.8-6.7 2.1-10.5 2.2-26.3 0-12.1-.6-22.8-1.7-31-5.1-36.8-23.4-111.9-35.2-144.5-9.7-26.8-26.5-63.3-37.9-82.4-4.8-7.9-9.1-12.9-27.4-31.6-11.9-12.1-24.5-25.3-27.9-29.2l-6.3-7 6.5-4.3c3.8-2.4 8.3-6.4 10.5-9.4 5.1-6.8 5.2-10.3.4-26.8-2-6.8-4.9-17.1-6.4-23-3.2-11.8-7.5-21.1-15.6-33.6-7.4-11.3-12.3-15.8-30.4-27.7-20.9-13.7-29.7-18.8-40.9-23-32.8-12.6-117.7-29.2-161.1-31.5-43.1-2.2-112.5-3.5-126.5-2.3zm94 34.9c40.8 2.9 88.9 9 115 14.5 33.6 7.1 72.6 20.7 88.3 30.8 9.5 6.2 26.2 20 36.3 30.2 11 11 15.6 18.6 14.4 24-.9 4.1-6.4 10.1-11.2 12.3l-3.8 1.7-8.2-5.5c-29.7-19.8-75.7-37.6-137.3-53.1-26.5-6.6-47.3-11-65-13.6-19.7-3-66-3.7-90-1.5-43.1 4.1-88.5 14.8-129 30.3-16.2 6.2-34.2 14.5-41 18.8-2.5 1.6-10.1 6-17 9.8-40 22.1-72.5 54.5-107.8 107.4-40.5 60.8-68.3 121.2-79.7 173.3-1.4 6.3-2.8 12.5-3.1 13.8-.4 2.2-.8 2.3-4.7 1.7-12.2-2-20.4-7-24.1-14.7-4-8.3-8.7-28.8-9.3-40.8-.7-12.8.2-17.2 6.7-35 2.7-7.4 8.5-24.8 12.9-38.5 12.1-37.6 16.3-45 45.1-80 31.6-38.4 46.4-52 94.5-86.7 42.2-30.6 57.9-40.5 87.2-54.8 48.9-24 63.2-29.3 91.2-34 30.1-5.1 79.9-11.3 97.1-12.3 6.9-.3 19.4.2 42.5 1.9zm-12 90.4c44.1 2.6 83.2 11.2 123.5 27.2 77.1 30.7 143.1 85.9 185.5 155.2 15.6 25.4 24.5 44.9 34.3 74.6 20.1 60.9 27.7 115.6 19.1 137.1l-1 2.7-77.7.6c-42.7.3-205.6.9-361.9 1.2l-284.1.6-2.5-4.8c-16-31.6-11.9-87.2 10.8-148.5 37.7-101.5 97.4-171 182.5-212.3 44.9-21.8 94.1-33.2 148.5-34.4 3.3-.1 13.7.3 23 .8z"/></svg>