<?xml version="1.0" encoding="UTF-8" standalone="no"?>
<svg
   xmlns:x="adobe:ns:meta/"
   xmlns:dc="http://purl.org/dc/elements/1.1/"
   xmlns:cc="http://creativecommons.org/ns#"
   xmlns:rdf="http://www.w3.org/1999/02/22-rdf-syntax-ns#"
   xmlns:svg="http://www.w3.org/2000/svg"
   xmlns="http://www.w3.org/2000/svg"
   version="1.1"
   viewBox="0 0 461.95804 289.00305"
   height="289.00305"
   width="461.95804"
   id="Тако">
  <metadata
     id="metadata2">
<?xpacket begin="" id="W5M0MpCehiHzreSzNTczkc9d"?>    <x:xmpmeta
       x:xmptk="Adobe XMP Core 5.6-c142 79.160924, 2017/07/13-01:06:39        ">
      <metadata>
        <rdf:RDF>
          <rdf:Description
             rdf:about="" />
          <cc:Work
             rdf:about="">
            <dc:format>image/svg+xml</dc:format>
            <dc:type
               rdf:resource="http://purl.org/dc/dcmitype/StillImage" />
            <dc:title></dc:title>
          </cc:Work>
        </rdf:RDF>
      </metadata>
    </x:xmpmeta>
<?xpacket end="w"?>  </metadata>
  <defs
     id="defs6">
    <style
       id="style4">
      .cls-1, .cls-2, .cls-3 {
        fill-rule: evenodd;
      }

      .cls-2 {
        fill: #61a93d;
      }

      .cls-3 {
        fill: #e27533;
      }
    </style>
  </defs>
  <path
     style="fill-rule:evenodd"
     d="m 39.101026,239.05207 c 0,0 -2.111,-0.191 -9.5,-2.378 -2.888,-0.855 -14.662,-9.048 -17.817,-13.083 -3.7509999,-4.8 -8.4109999,-11.785 -10.6899999,-19.028 -2.279,-7.243 -0.76100003,-28 2.376,-34.49 0.488,-1.01 3.107,-14.473 3.563,-16.65 0.456,-2.177 4.7879999,-27.279 22.5679999,-47.572 17.78,-20.293003 31.2,-37.071003 58.2,-54.708003 27.000004,-17.637 49.934004,-30.61 54.638004,-33.3 4.704,-2.69 12.18,-4.834 21.38,-7.136 9.2,-2.3020003 19.624,-7.0180003 29.695,-8.3250003 10.071,-1.307 17.921,-2.31699999 26.13,-2.37899999 8.209,-0.062 57.8,0.819 67.7,2.37899999 9.9,1.56 60.66,8.7160003 77.206,19.0290003 16.546,10.313 21.654,13.2 26.132,20.218 4.478,7.018 7.057,11.508 8.314,17.84 1.257,6.332 6.856,19.391 4.751,22.6 a 22.7,22.7 0 0 1 -11.878,9.514 c -6.43,2.265 -352.768004,147.469003 -352.768004,147.469003 z"
     class="cls-1"
     data-name="рамка салата"
     id="рамка_салата" />
  <path
     style="fill:#61a93d;fill-rule:evenodd"
     d="m 50.979026,215.26607 c 0,0 -23.786,4.12 -27.319,-9.514 -2.565,-9.9 -6.643,-20.855 -1.188,-33.3 5.176,-11.809 9.331,-35.1 18.714,-47.555 9.383,-12.455 25.446,-32.425003 40.228,-44.000003 14.782,-11.575 47.147004,-34.545 53.244004,-36.862 6.097,-2.317 32.145,-17.319 48.51,-20.214 16.365,-2.895 44.262,-6.606 54.426,-7.135 10.164,-0.529 50.412,3.008 73.357,7.135 22.945,4.127 43.9,12.679 49.694,16.647 5.794,3.968 22.113,16.785 24.847,23.782 2.734,6.997 -7.569,11.87 -14.2,11.891 -6.631,0.021 -320.313004,139.125003 -320.313004,139.125003 z"
     class="cls-2"
     id="салат" />
  <path
     style="fill-rule:evenodd"
     d="M 63.133026,150.03907 C 103.87703,75.182067 134.53303,68.686067 141.52703,63.339067 c 6.994,-5.347 74.448,-37.39 144.106,-22.567 69.658,14.823 92.6,31.822 100.3,41.57 7.7,9.748 29.036,31.907003 33.433,35.632003 4.812,4.075 21.208,37.151 27.147,58.048 24.653,86.732 19.429,109.037 -13.065,109.416 -12.264,0.14 -183.553,3.565 -183.553,3.565 l -189.068004,-1.188 c -24.46,1.335 -39.878,-60.274 2.306,-137.776 z"
     class="cls-1"
     data-name="рамка бутера"
     id="рамка_бутера" />
  <path
     style="fill:#e27533;fill-rule:evenodd"
     d="m 433.31903,261.79407 -361.593004,1.044 c 0,0 -20.09,-24.252 10.391,-92.957 68.726004,-154.914003 273.076004,-132.163003 335.955004,4.214 7.722,16.746 24.196,71.174 15.247,87.699 z"
     class="cls-3"
     id="бутер" />
</svg>
